<?xml version="1.0" encoding="utf-8"?>
<!-- Generator: Adobe Illustrator 16.0.0, SVG Export Plug-In . SVG Version: 6.00 Build 0)  -->
<!DOCTYPE svg PUBLIC "-//W3C//DTD SVG 1.1//EN" "http://www.w3.org/Graphics/SVG/1.1/DTD/svg11.dtd">
<svg version="1.1" id="svg2" xmlns:svg="http://www.w3.org/2000/svg" xmlns:inkscape="http://www.inkscape.org/namespaces/inkscape"
	 xmlns="http://www.w3.org/2000/svg" xmlns:xlink="http://www.w3.org/1999/xlink" x="0px" y="0px" width="422.525px"
	 height="67.552px" viewBox="0 0 422.525 67.552" enable-background="new 0 0 422.525 67.552" xml:space="preserve">
<defs>
	
	<inkscape:perspective  id="perspective10"></inkscape:perspective>
	<inkscape:perspective  id="perspective2395"></inkscape:perspective>
</defs>
<g id="layer1" transform="translate(-83.26196,-844.08145)">
	<g id="g2397" transform="matrix(1.25,0,0,-1.25,-176.96804,1762.9502)">
		<g id="g2399">
			<g>
				<defs>
					<rect id="SVGID_1_" x="-148.819" y="-105.237" width="1488.188" height="1052.363"/>
				</defs>
				<clipPath id="SVGID_2_">
					<use xlink:href="#SVGID_1_"  overflow="visible"/>
				</clipPath>
				<g id="g2401" clip-path="url(#SVGID_2_)">
					<path id="path2407" fill="#6EC72D" d="M271.909,720.102v-26.24c0-3.749-1.949-5.471-5.476-5.471h-9.592
						c-3.526,0-5.474,1.722-5.474,5.471v26.24h-28.112v14.993h-7.349v-14.993h-7.722v-7.423h7.722v-18.666
						c0-8.026,5.396-12.97,12.822-12.97h3.823l0.15,7.42h-3.973c-3.522,0-5.473,1.875-5.473,5.55v18.666h20.763v-18.817
						c0-7.948,5.55-12.82,12.823-12.82h9.592c7.275,0,12.822,4.872,12.822,12.82v26.24H271.909z"/>
					<path id="path2409" fill="#231F20" d="M300.03,707.103c-2.341,0-3.247,1.487-3.247,3.677v7.93h-2.517v1.158h2.517v3.476
						l1.257,0.301v-3.777h3.905v-1.158h-3.905v-7.881c0-1.485,0.402-2.545,2.092-2.545c0.68,0,1.308,0.105,1.988,0.23v-1.109
						C301.416,707.254,300.736,707.103,300.03,707.103"/>
					<path id="path2411" fill="#231F20" d="M315.01,713.271h-9.617c0.026-1.46,0.503-2.817,1.308-3.775
						c0.706-0.833,1.688-1.335,3.048-1.335c1.108,0,2.065,0.404,2.744,1.108c0.454,0.478,0.806,1.033,0.956,1.787h1.308
						c-0.175-1.083-0.703-1.965-1.408-2.643c-0.905-0.905-2.165-1.46-3.6-1.46c-1.813,0-3.097,0.755-4.004,1.785
						c-1.033,1.208-1.611,2.872-1.611,4.785c0,1.585,0.251,3.147,1.233,4.481c1.058,1.435,2.519,2.19,4.28,2.19
						c3.399,0,5.389-2.921,5.389-6.091C315.036,713.799,315.01,713.576,315.01,713.271 M309.647,719.01
						c-2.593,0-4.228-2.088-4.228-4.579h8.332C313.702,716.822,312.215,719.01,309.647,719.01"/>
					<path id="path2413" fill="#231F20" d="M323.168,706.953c-1.561,0-2.821,0.602-3.701,1.485c-1.31,1.309-1.764,2.996-1.764,5.138
						c0,2.136,0.454,3.823,1.764,5.134c0.88,0.881,2.14,1.484,3.701,1.484c2.618,0,4.557-1.71,4.859-4.257h-1.309
						c-0.279,1.74-1.637,3.023-3.55,3.023c-1.21,0-2.141-0.401-2.796-1.081c-1.132-1.181-1.385-2.669-1.385-4.303
						c0-1.64,0.253-3.147,1.385-4.332c0.655-0.679,1.586-1.056,2.796-1.056c1.938,0,3.271,1.357,3.576,3.069h1.333
						C327.75,708.815,325.81,706.953,323.168,706.953"/>
					<path id="path2415" fill="#231F20" d="M340.185,707.28v8.232c0,2.19-0.956,3.498-3.248,3.498c-3.096,0-4.18-2.716-4.18-5.434
						v-6.296h-1.258v18.177h1.258v-7.906c0.704,1.614,2.493,2.643,4.255,2.643c2.894,0,4.432-1.786,4.432-4.606v-8.308H340.185z"/>
					<path id="path2417" fill="#231F20" d="M354.863,707.28v8.232c0,2.19-0.956,3.448-3.249,3.448c-3.096,0-4.177-2.666-4.177-5.384
						v-6.296h-1.26v12.588h1.108l0.152-2.29c0.705,1.587,2.493,2.616,4.254,2.616c2.896,0,4.432-1.786,4.432-4.606v-8.308H354.863z"
						/>
					<path id="path2419" fill="#231F20" d="M360.755,725.128h1.761v-1.761h-1.761V725.128z M360.982,719.868h1.334V707.28h-1.334
						V719.868z"/>
					<path id="path2421" fill="#231F20" d="M375.534,708.462c-0.906-1.006-2.417-1.509-4.078-1.509c-1.712,0-3.173,0.527-4.13,1.612
						c-0.704,0.804-1.008,1.508-1.057,2.542h1.283c0.075-0.758,0.404-1.411,0.933-1.94c0.728-0.705,1.761-1.006,2.971-1.006
						c1.31,0,2.341,0.301,2.971,0.93c0.451,0.454,0.678,0.882,0.678,1.612c0,1.133-0.805,2.09-2.315,2.291l-2.443,0.328
						c-1.031,0.125-2.14,0.454-2.845,1.258c-0.453,0.528-0.705,1.184-0.705,1.991c0,1.007,0.429,1.837,1.083,2.439
						c0.907,0.836,2.141,1.184,3.45,1.184c1.509,0,2.944-0.476,3.801-1.484c0.578-0.68,0.932-1.512,0.958-2.315h-1.26
						c-0.049,0.402-0.226,1.033-0.629,1.509c-0.58,0.68-1.562,1.106-2.87,1.106c-0.983,0-1.712-0.173-2.267-0.575
						c-0.628-0.455-0.98-1.06-0.98-1.737c0-1.059,0.528-1.865,2.44-2.118l2.392-0.328c2.366-0.325,3.475-1.937,3.475-3.472
						C376.39,709.846,376.089,709.091,375.534,708.462"/>
					<path id="path2423" fill="#231F20" d="M384.673,706.953c-1.561,0-2.819,0.602-3.698,1.485c-1.31,1.309-1.766,2.996-1.766,5.138
						c0,2.136,0.455,3.823,1.766,5.134c0.88,0.881,2.138,1.484,3.698,1.484c2.619,0,4.556-1.71,4.859-4.257h-1.307
						c-0.278,1.74-1.637,3.023-3.552,3.023c-1.208,0-2.141-0.401-2.795-1.081c-1.131-1.181-1.383-2.669-1.383-4.303
						c0-1.64,0.252-3.147,1.383-4.332c0.655-0.679,1.587-1.056,2.795-1.056c1.938,0,3.274,1.357,3.575,3.069h1.336
						C389.254,708.815,387.316,706.953,384.673,706.953"/>
					<path id="path2425" fill="#231F20" d="M401.691,707.28v8.232c0,2.19-0.958,3.498-3.25,3.498c-3.097,0-4.177-2.716-4.177-5.434
						v-6.296h-1.262v18.177h1.262v-7.906c0.703,1.614,2.491,2.643,4.252,2.643c2.898,0,4.434-1.786,4.434-4.606v-8.308H401.691z"/>
					<path id="path2427" fill="#231F20" d="M417.477,713.271h-9.616c0.024-1.46,0.502-2.817,1.307-3.775
						c0.706-0.833,1.689-1.335,3.047-1.335c1.107,0,2.066,0.404,2.745,1.108c0.452,0.478,0.805,1.033,0.956,1.787h1.309
						c-0.177-1.083-0.706-1.965-1.411-2.643c-0.906-0.905-2.165-1.46-3.6-1.46c-1.815,0-3.095,0.755-4.002,1.785
						c-1.033,1.208-1.613,2.872-1.613,4.785c0,1.585,0.253,3.147,1.234,4.481c1.058,1.435,2.517,2.19,4.281,2.19
						c3.399,0,5.388-2.921,5.388-6.091C417.502,713.799,417.477,713.576,417.477,713.271 M412.115,719.01
						c-2.594,0-4.23-2.088-4.23-4.579h8.333C416.166,716.822,414.682,719.01,412.115,719.01"/>
					<path id="path2429" fill="#231F20" d="M435.252,707.306l-0.152,2.291c-0.705-1.613-2.491-2.619-4.255-2.619
						c-2.895,0-4.43,1.787-4.43,4.607v8.309h1.258v-8.234c0-2.19,0.956-3.449,3.249-3.449c3.095,0,4.178,2.668,4.178,5.387v6.296
						h1.26v-12.588H435.252z"/>
					<path id="path2431" fill="#231F20" d="M450.032,707.28v8.232c0,2.19-0.958,3.448-3.248,3.448c-3.097,0-4.181-2.666-4.181-5.384
						v-6.296h-1.258v12.588h1.108l0.15-2.29c0.706,1.587,2.495,2.616,4.256,2.616c2.895,0,4.43-1.786,4.43-4.606v-8.308H450.032z"/>
					<path id="path2433" fill="#231F20" d="M455.923,725.128h1.763v-1.761h-1.763V725.128z M456.149,719.868h1.331V707.28h-1.331
						V719.868z"/>
					<path id="path2435" fill="#231F20" d="M466.699,707.28h-1.286l-4.983,12.588h1.433l4.231-10.801l4.052,10.801h1.337
						L466.699,707.28z"/>
					<path id="path2437" fill="#231F20" d="M483.991,713.271h-9.616c0.023-1.46,0.502-2.817,1.308-3.775
						c0.703-0.833,1.688-1.335,3.045-1.335c1.109,0,2.066,0.404,2.744,1.108c0.455,0.478,0.806,1.033,0.956,1.787h1.309
						c-0.175-1.083-0.703-1.965-1.408-2.643c-0.908-0.905-2.167-1.46-3.602-1.46c-1.812,0-3.098,0.755-4.002,1.785
						c-1.033,1.208-1.611,2.872-1.611,4.785c0,1.585,0.25,3.147,1.233,4.481c1.059,1.435,2.517,2.19,4.278,2.19
						c3.4,0,5.389-2.921,5.389-6.091C484.016,713.799,483.991,713.576,483.991,713.271 M478.627,719.01
						c-2.589,0-4.228-2.088-4.228-4.579h8.334C482.684,716.822,481.198,719.01,478.627,719.01"/>
					<path id="path2439" fill="#231F20" d="M493.03,718.785c-3.15,0-4.003-2.819-4.003-5.463v-6.042h-1.259v12.588h1.108
						l0.152-2.542c0.553,1.737,2.239,2.668,4.003,2.668c0.402,0,0.83,0,1.233-0.076v-1.259
						C493.86,718.761,493.432,718.785,493.03,718.785"/>
					<path id="path2441" fill="#231F20" d="M505.238,708.462c-0.903-1.006-2.414-1.509-4.078-1.509c-1.709,0-3.172,0.527-4.13,1.612
						c-0.705,0.804-1.005,1.508-1.053,2.542h1.281c0.075-0.758,0.403-1.411,0.933-1.94c0.728-0.705,1.761-1.006,2.969-1.006
						c1.312,0,2.342,0.301,2.97,0.93c0.455,0.454,0.683,0.882,0.683,1.612c0,1.133-0.806,2.09-2.319,2.291l-2.442,0.328
						c-1.033,0.125-2.141,0.454-2.844,1.258c-0.452,0.528-0.705,1.184-0.705,1.991c0,1.007,0.427,1.837,1.081,2.439
						c0.906,0.836,2.141,1.184,3.448,1.184c1.513,0,2.947-0.476,3.805-1.484c0.58-0.68,0.931-1.512,0.955-2.315h-1.259
						c-0.05,0.402-0.225,1.033-0.628,1.509c-0.581,0.68-1.559,1.106-2.872,1.106c-0.981,0-1.711-0.173-2.264-0.575
						c-0.63-0.455-0.983-1.06-0.983-1.737c0-1.059,0.53-1.865,2.441-2.118l2.394-0.328c2.367-0.325,3.475-1.937,3.475-3.472
						C506.096,709.846,505.793,709.091,505.238,708.462"/>
					<path id="path2443" fill="#231F20" d="M509.899,725.128h1.761v-1.761h-1.761V725.128z M510.126,719.868h1.334V707.28h-1.334
						V719.868z"/>
					<path id="path2445" fill="#231F20" d="M520.423,707.103c-2.342,0-3.25,1.487-3.25,3.677v7.93h-2.516v1.158h2.516v3.476
						l1.258,0.301v-3.777h3.903v-1.158h-3.903v-7.881c0-1.485,0.403-2.545,2.091-2.545c0.681,0,1.309,0.105,1.992,0.23v-1.109
						C521.807,707.254,521.127,707.103,520.423,707.103"/>
					<path id="path2447" fill="#231F20" d="M535.68,707.202c-1.562,0-1.992,1.134-1.992,2.469c-0.68-1.788-2.592-2.718-4.531-2.718
						c-2.441,0-4.331,1.46-4.331,3.876c0,2.24,1.737,3.576,4.233,3.751l4.63,0.329v1.233c0,2.091-1.411,2.868-3.322,2.868
						c-1.989,0-3.5-0.904-3.627-2.767h-1.258c0.178,2.542,2.166,3.951,4.884,3.951c1.711,0,3.575-0.578,4.256-2.315
						c0.3-0.78,0.325-1.585,0.325-2.418v-5.74c0-0.856,0.128-1.358,0.983-1.358c0.152,0,0.227,0,0.353,0.026v-1.109
						C535.98,707.23,535.98,707.202,535.68,707.202 M533.688,713.749l-4.505-0.278c-1.864-0.122-3.072-1.104-3.072-2.642
						c0-1.812,1.359-2.719,3.145-2.719c3.173,0,4.431,2.568,4.431,4.986V713.749z M527.348,724.55h1.508v-1.585h-1.508V724.55z
						 M531.977,724.55h1.534v-1.585h-1.534V724.55z"/>
					<path id="path2449" fill="#231F20" d="M543.732,707.103c-2.341,0-3.248,1.487-3.248,3.677v7.93h-2.517v1.158h2.517v3.476
						l1.258,0.301v-3.777h3.903v-1.158h-3.903v-7.881c0-1.485,0.403-2.545,2.092-2.545c0.678,0,1.308,0.105,1.989,0.23v-1.109
						C545.116,707.254,544.437,707.103,543.732,707.103"/>
					<path id="path2451" fill="#231F20" d="M304.763,681.03l-0.149,2.215c-0.682-1.561-2.494-2.542-4.181-2.542
						c-1.433,0-2.517,0.451-3.348,1.184c-1.41,1.231-2.064,3.248-2.064,5.411c0,2.065,0.63,4.08,1.963,5.339
						c0.831,0.803,1.965,1.309,3.423,1.309c1.79,0,3.525-1.008,4.207-2.445v7.705h1.257V681.03H304.763z M303.052,691.729
						c-0.629,0.605-1.485,0.983-2.645,0.983c-1.183,0-2.038-0.428-2.693-1.109c-0.983-1.055-1.41-2.669-1.41-4.279
						c0-1.79,0.503-3.475,1.662-4.508c0.63-0.554,1.434-0.881,2.494-0.881c1.107,0,1.937,0.404,2.566,1.009
						c1.134,1.103,1.613,2.641,1.613,4.38C304.639,689.187,304.21,690.646,303.052,691.729"/>
					<path id="path2453" fill="#231F20" d="M318.912,682.211c-0.881-0.88-2.113-1.509-3.674-1.509c-1.562,0-2.794,0.629-3.679,1.509
						c-1.308,1.309-1.784,2.97-1.784,5.112c0,2.139,0.476,3.803,1.784,5.111c0.885,0.882,2.117,1.511,3.679,1.511
						c1.561,0,2.793-0.629,3.674-1.511c1.31-1.308,1.788-2.972,1.788-5.111C320.7,685.182,320.222,683.521,318.912,682.211
						 M318.007,691.603c-0.654,0.68-1.562,1.109-2.769,1.109s-2.116-0.428-2.77-1.109c-1.133-1.184-1.41-2.644-1.41-4.279
						c0-1.636,0.277-3.098,1.41-4.281c0.654-0.68,1.563-1.108,2.77-1.108s2.115,0.427,2.769,1.108
						c1.134,1.183,1.409,2.645,1.409,4.281C319.416,688.959,319.141,690.419,318.007,691.603"/>
					<path id="path2455" fill="#231F20" d="M329.864,692.536c-3.148,0-4.003-2.823-4.003-5.466v-6.04h-1.259v12.589h1.106
						l0.153-2.545c0.555,1.739,2.24,2.67,4.003,2.67c0.403,0,0.831,0,1.234-0.077v-1.259
						C330.695,692.509,330.267,692.536,329.864,692.536"/>
					<path id="path2457" fill="#231F20" d="M338.316,680.852c-2.34,0-3.247,1.487-3.247,3.676v7.934h-2.517v1.158h2.517v3.473
						l1.26,0.304v-3.777h3.902v-1.158h-3.902v-7.883c0-1.484,0.4-2.541,2.09-2.541c0.679,0,1.309,0.099,1.987,0.225v-1.109
						C339.702,681.004,339.021,680.852,338.316,680.852"/>
					<path id="path2459" fill="#231F20" d="M359.794,681.03v8.232c0,2.191-0.807,3.498-2.998,3.498c-0.956,0-1.661-0.325-2.24-0.856
						c-0.982-0.93-1.485-2.237-1.485-3.752v-7.122h-1.284v8.232c0,2.191-0.831,3.498-3.021,3.498c-0.957,0-1.688-0.325-2.242-0.856
						c-1.133-1.051-1.51-2.794-1.51-4.58v-6.294h-1.258v12.589h1.108l0.15-2.166c0.655,1.434,2.015,2.493,3.825,2.493
						c2.194,0,3.476-1.081,3.98-2.72c0.655,1.561,1.989,2.72,4.054,2.72c2.945,0,4.18-1.914,4.18-4.609v-8.306H359.794z"/>
					<path id="path2461" fill="#231F20" d="M374.372,681.054l-0.154,2.291c-0.705-1.611-2.49-2.62-4.254-2.62
						c-2.896,0-4.431,1.789-4.431,4.611v8.305h1.259v-8.232c0-2.19,0.958-3.448,3.248-3.448c3.097,0,4.178,2.669,4.178,5.388v6.293
						h1.26v-12.588H374.372z"/>
					<path id="path2463" fill="#231F20" d="M389.149,681.03v8.232c0,2.191-0.958,3.449-3.246,3.449c-3.098,0-4.181-2.67-4.181-5.388
						v-6.294h-1.258v12.589h1.107l0.151-2.292c0.706,1.586,2.493,2.619,4.256,2.619c2.897,0,4.432-1.79,4.432-4.609v-8.306H389.149z
						"/>
					<path id="path2465" fill="#231F20" d="M403.753,681.03l-0.152,2.215c-0.678-1.561-2.492-2.542-4.181-2.542
						c-1.434,0-2.516,0.451-3.348,1.184c-1.409,1.231-2.062,3.248-2.062,5.411c0,2.065,0.63,4.08,1.966,5.339
						c0.831,0.803,1.961,1.309,3.422,1.309c1.789,0,3.527-1.008,4.205-2.445v7.705h1.26V681.03H403.753z M402.039,691.729
						c-0.63,0.605-1.485,0.983-2.643,0.983c-1.183,0-2.039-0.428-2.694-1.109c-0.981-1.055-1.411-2.669-1.411-4.279
						c0-1.79,0.505-3.475,1.661-4.508c0.631-0.554,1.437-0.881,2.495-0.881c1.107,0,1.938,0.404,2.567,1.009
						c1.133,1.103,1.613,2.641,1.613,4.38C403.627,689.187,403.198,690.646,402.039,691.729"/>
				</g>
			</g>
		</g>
	</g>
</g>
</svg>
