<?xml version="1.0" encoding="utf-8"?>
<!-- Generator: Adobe Illustrator 16.0.0, SVG Export Plug-In . SVG Version: 6.00 Build 0)  -->
<!DOCTYPE svg PUBLIC "-//W3C//DTD SVG 1.1//EN" "http://www.w3.org/Graphics/SVG/1.1/DTD/svg11.dtd">
<svg version="1.1" id="svg2" xmlns:svg="http://www.w3.org/2000/svg" xmlns:inkscape="http://www.inkscape.org/namespaces/inkscape"
	 xmlns="http://www.w3.org/2000/svg" xmlns:xlink="http://www.w3.org/1999/xlink" x="0px" y="0px" width="88.881px"
	 height="67.542px" viewBox="0.564 0.745 88.881 67.542" enable-background="new 0.564 0.745 88.881 67.542" xml:space="preserve">
<defs>
	
	<inkscape:perspective  id="perspective10"></inkscape:perspective>
	<inkscape:perspective  id="perspective2395"></inkscape:perspective>
</defs>
<g id="layer1" transform="translate(-83.26196,-844.08145)">
	<g id="g2397" transform="matrix(1.25,0,0,-1.25,-176.96804,1762.9502)">
		<g id="g2399">
			<g>
				<g>
					<defs>
						<rect id="SVGID_1_" x="-475.643" y="-229.385" width="1860.236" height="1315.454"/>
					</defs>
					<clipPath id="SVGID_2_">
						<use xlink:href="#SVGID_1_"  overflow="visible"/>
					</clipPath>
					<g id="g2401" clip-path="url(#SVGID_2_)">
						<path id="path2407" fill="#6EC72D" d="M272.395,719.499v-26.24c0-3.749-1.95-5.471-5.477-5.471h-9.592
							c-3.527,0-5.473,1.722-5.473,5.471v26.24H223.74v14.993h-7.348v-14.993h-7.722v-7.423h7.722V693.41
							c0-8.026,5.395-12.97,12.822-12.97h3.823l0.15,7.42h-3.973c-3.522,0-5.473,1.875-5.473,5.55v18.666h20.763v-18.817
							c0-7.948,5.55-12.82,12.823-12.82h9.592c7.275,0,12.822,4.873,12.822,12.82v26.24H272.395z"/>
					</g>
				</g>
			</g>
		</g>
	</g>
</g>
</svg>
